<?xml version="1.0"?>
<svg xmlns="http://www.w3.org/2000/svg" viewBox="0 0 64 64" width="512" height="512"><g id="Chargeback"><path d="M61,24.232A30.024,30.024,0,0,0,47.272,6.171l3.467-.929a1,1,0,1,0-.518-1.932L44.426,4.863a1,1,0,0,0-.707,1.224l1.552,5.8a1,1,0,1,0,1.932-.518L46.276,7.9a28,28,0,1,1-41.3,31.34,1,1,0,0,0-1.932.517A30.035,30.035,0,0,0,31.977,62.009a30.147,30.147,0,0,0,7.814-1.035A30,30,0,0,0,61,24.232Z"/><path d="M26.073,9.78A23,23,0,0,0,31.849,55l-1.938,1.45a1,1,0,0,0,.6,1.8.991.991,0,0,0,.6-.2l4.312-3.226a1,1,0,0,0,.2-1.4L32.4,49.112a1,1,0,0,0-1.6,1.2l1.989,2.657A20.993,20.993,0,1,1,52.311,26.562a1,1,0,1,0,1.931-.518A23.026,23.026,0,0,0,26.073,9.78Z"/><path d="M48,32A16,16,0,1,0,32,48,16.019,16.019,0,0,0,48,32ZM32,46A14,14,0,1,1,46,32,14.015,14.015,0,0,1,32,46Z"/><path d="M32,20A12,12,0,1,0,44,32,12.013,12.013,0,0,0,32,20Zm0,22A10,10,0,1,1,42,32,10.011,10.011,0,0,1,32,42Z"/><path d="M4,32A28.032,28.032,0,0,1,32,4a1,1,0,0,0,0-2A30.034,30.034,0,0,0,2,32a1,1,0,0,0,2,0Z"/><path d="M42.146,52.527a.989.989,0,0,0,.46-.113A22.945,22.945,0,0,0,55,32a1,1,0,0,0-2,0A20.952,20.952,0,0,1,41.683,50.64a1,1,0,0,0,.463,1.887Z"/><path d="M32,27a2,2,0,0,1,2,2,1,1,0,0,0,2,0,4,4,0,0,0-3-3.858V24a1,1,0,0,0-2,0v1.142A3.992,3.992,0,0,0,32,33a2,2,0,1,1-2,2,1,1,0,0,0-2,0,4,4,0,0,0,3,3.858V40a1,1,0,0,0,2,0V38.858A3.992,3.992,0,0,0,32,31a2,2,0,0,1,0-4Z"/></g></svg>
