<?xml version="1.0"?>
<svg xmlns="http://www.w3.org/2000/svg" viewBox="0 0 64 64" width="512" height="512"><g id="Exchange"><path d="M16,24H3a1,1,0,0,1-1-1V11a1,1,0,0,1,1-1H21.41a1,1,0,0,1,.662,1.75A15.009,15.009,0,0,0,17,23,1,1,0,0,1,16,24ZM4,22H15.029a17.028,17.028,0,0,1,4-10H4Z"/><path d="M52,30a1.019,1.019,0,0,1-.316-.051A1,1,0,0,1,51,29V24H48a1,1,0,0,1-1-1,15.009,15.009,0,0,0-5.072-11.25A1,1,0,0,1,42.59,10H51V5a1,1,0,0,1,1.8-.6l9,12a1,1,0,0,1,0,1.2l-9,12A1,1,0,0,1,52,30Zm-3.029-8H52a1,1,0,0,1,1,1v3l6.75-9L53,8v3a1,1,0,0,1-1,1H44.967A17.028,17.028,0,0,1,48.971,22Z"/><path d="M61,54H42.59a1,1,0,0,1-.662-1.75A15.009,15.009,0,0,0,47,41a1,1,0,0,1,1-1H61a1,1,0,0,1,1,1V53A1,1,0,0,1,61,54ZM44.967,52H60V42H48.971A17.028,17.028,0,0,1,44.967,52Z"/><path d="M12,60a1,1,0,0,1-.8-.4l-9-12a1,1,0,0,1,0-1.2l9-12A1,1,0,0,1,13,35v5h3a1,1,0,0,1,1,1,15.009,15.009,0,0,0,5.072,11.25A1,1,0,0,1,21.41,54H13v5a1,1,0,0,1-.684.949A1.019,1.019,0,0,1,12,60ZM4.25,47,11,56V53a1,1,0,0,1,1-1h7.033a17.028,17.028,0,0,1-4-10H12a1,1,0,0,1-1-1V38Z"/><path d="M35,60H29a1,1,0,0,1-1-1V53.372A12.989,12.989,0,0,1,19,41a1,1,0,0,1,1-1h6a1,1,0,0,1,1,1,5,5,0,1,0,5-5,13,13,0,0,1-4-25.372V5a1,1,0,0,1,1-1h6a1,1,0,0,1,1,1v5.628A12.989,12.989,0,0,1,45,23a1,1,0,0,1-1,1H38a1,1,0,0,1-1-1,5,5,0,1,0-5,5,13,13,0,0,1,4,25.372V59A1,1,0,0,1,35,60Zm-5-2h4V52.62a1,1,0,0,1,.751-.969A11,11,0,0,0,32,30a7,7,0,1,1,6.929-8h4.026a10.983,10.983,0,0,0-8.2-9.651A1,1,0,0,1,34,11.38V6H30v5.38a1,1,0,0,1-.751.969A11,11,0,0,0,32,34a7,7,0,1,1-6.929,8H21.045a10.983,10.983,0,0,0,8.2,9.651A1,1,0,0,1,30,52.62Z"/></g></svg>
